<?xml version="1.0" encoding="UTF-8" standalone="no"?>
<svg viewBox="0 0 371.8183 251.3788" xmlns="http://www.w3.org/2000/svg" xmlns:xlink="http://www.w3.org/1999/xlink">
<defs>
<filter id="filter3306">
<feGaussianBlur stdDeviation=".45433"/>
</filter>
<filter id="filter3338">
<feGaussianBlur stdDeviation="1.16477"/>
</filter>
<filter id="filter3368">
<feGaussianBlur stdDeviation=".45522"/>
</filter>
<filter id="filter3386">
<feGaussianBlur stdDeviation=".29327"/>
</filter>
<filter id="filter3446">
<feGaussianBlur stdDeviation="1.29208"/>
</filter>
<filter id="filter3620">
<feGaussianBlur stdDeviation=".44745"/>
</filter>
<filter id="filter3689">
<feGaussianBlur stdDeviation=".70705"/>
</filter>
<filter id="filter3789">
<feGaussianBlur stdDeviation=".53828"/>
</filter>
<filter id="filter3809">
<feGaussianBlur stdDeviation="2.87599"/>
</filter>
<filter id="filter3999">
<feGaussianBlur stdDeviation=".29273"/>
</filter>
<filter id="filter4090">
<feGaussianBlur stdDeviation=".42715"/>
</filter>
<filter id="filter4156">
<feGaussianBlur stdDeviation=".32668"/>
</filter>
<filter id="filter4350">
<feGaussianBlur stdDeviation=".74933"/>
</filter>
<filter id="filter4447">
<feGaussianBlur stdDeviation="2.19908"/>
</filter>
<filter id="filter3893"></filter>
<linearGradient id="linearGradient4160">
<stop offset="0" stop-color="#fff"/>
<stop offset="1" stop-color="#fff" stop-opacity="0"/>
</linearGradient>
<linearGradient gradientUnits="userSpaceOnUse" id="linearGradient4538" x1="251.48837" x2="270.20166" y1="493.24551" y2="399.22269">
<stop offset="0" stop-color="#1a1a1a"/>
<stop offset="1" stop-color="#5b5b5b"/>
</linearGradient>
<linearGradient gradientUnits="userSpaceOnUse" id="linearGradient4540" x1="309.17517" x2="230.1682" y1="477.14322" y2="548.49133">
<stop offset="0"/>
<stop offset="1" stop-opacity="0"/>
</linearGradient>
<linearGradient gradientUnits="userSpaceOnUse" id="linearGradient4542" x1="314.0123" x2="239.03633" y1="426.75613" y2="474.72464">
<stop offset="0" stop-color="#7f7f7f"/>
<stop offset="1" stop-color="#333"/>
</linearGradient>
<linearGradient gradientUnits="userSpaceOnUse" id="linearGradient4544" x1="586.58765" x2="651.34247" y1="500.17554" y2="441.74442">
<stop offset="0" stop-color="#585245"/>
<stop offset="1" stop-color="#414141"/>
</linearGradient>
<linearGradient gradientUnits="userSpaceOnUse" id="linearGradient4554" x1="611.71305" x2="597.92265" y1="434.11682" y2="452.26208">
<stop offset="0" stop-color="#272527"/>
<stop offset="1" stop-color="#646458"/>
</linearGradient>
<linearGradient gradientUnits="userSpaceOnUse" id="linearGradient4546" x1="555.56926" x2="560.44726" xlink:href="#linearGradient4160" y1="539.1568" y2="534.61988"/>
<linearGradient gradientTransform="matrix(6.5126315e-2,-.99788,-.99788,-6.5126315e-2,1058.2635,1129.7465)" gradientUnits="userSpaceOnUse" id="linearGradient4548" x1="555.65594" x2="560.53394" xlink:href="#linearGradient4160" y1="539.11346" y2="534.57654"/>
<linearGradient gradientUnits="userSpaceOnUse" id="linearGradient4550" x1="610.29169" x2="618.2655" xlink:href="#linearGradient4160" y1="463.94849" y2="473.02185"/>
<linearGradient gradientUnits="userSpaceOnUse" id="linearGradient4552" x1="632.39984" x2="626.26923" xlink:href="#linearGradient4160" y1="487.15973" y2="478.13275"/>
<linearGradient gradientUnits="userSpaceOnUse" id="linearGradient4556" x1="617.008" x2="590.49591" xlink:href="#linearGradient4160" y1="428.54898" y2="454.35214"/>
</defs>
<g transform="translate(-136.76831,-262.76239)">
<g transform="matrix(1.5566,-.13063,.13063,1.5566,72.57519,-312.29656)">
<path d="m144.84869,392.55056-138.28125,54.5c-1e-005-1e-005-3.08748,3.06885-2.40625,7.15625s.36733,5.83275 3.9375,9.5c3.65874,3.75821 3.34375,3.15625 3.34375,3.15625l66.125,53.125c.17253,1.06432.436,1.90138.875,2.34375 .55273.6488 1.98138,2.03919 3.625,3.40625 2.50676,2.63973 6.43266,6.27771 8.25,5.34375-.41551-.25679-.69378-.73994-.875-1.5625l13.5,10.875c-1e-005,0 2.48957,2.12324 7.5,3.375 2.09002.52214 5.89954.25496 9.3125-1.90625 2.07516-1.31405 115.40625-94.8125 115.40625-94.8125 2.10026-1.17474 2.72993-4.18787.59375-4.875l-2.21875-.6875-.21875-7.78125-75.40625,60.21875-35.40625,28.21875c-.80878.48796-5.11721,3.01239-8,3.15625-2.53108.12629-6.57156-.97321-13.03125-5.90625l-2.5-1.875 .34375-.3125c1.93102,1.44343 6.375,4.78125 6.375,4.78125s4.40634,2.72188 7.8125,3.0625 8.85629-3.0719 10.21875-4.09375 111.375-89.21875 111.375-89.21875c2.70156-2.14475 2.8443-3.73856-.3125-5.8125-.47398-.18959-5.78645-2.35932-13.40625-5.4375 .31894-.13454.55067-.21875.65625-.21875 .53043,0-.01885-.24821-1-.59375 .28516-.12161.50097-.21875.59375-.21875 1.87213-1e-005-9.84375-4.21875-9.84375-4.21875l-1.40625.84375c-20.49172-8.13385-48.92539-19.02101-65.53125-23.53125zm-115.03125,73.09375c14.52145,10.65884 32.10883,23.71495 47.59375,35.25-.01307.14173-.02664.29024-.03125.4375l-47.5625-35.6875z" fill-rule="evenodd" filter="url(#filter4447)" opacity=".93377" transform="matrix(.96706,0,0,.97828,3.97205,8.17238)"/>
<g transform="translate(-125.39084,-9.77246)">
<path d="m270.7898,391.90756-138.29014,54.49858c0,0-3.06554,3.06554-2.38431,7.15294s.36138,5.84058 3.93155,9.50783c3.65873,3.75822 3.32936,3.13849 3.32936,3.13849l91.51776,73.52955c0,0 2.48312,2.151 7.49355,3.40276 2.09001.52215 5.89609.22992 9.30905-1.93129 2.07515-1.31406 115.38929-94.81035 115.38929-94.81035 2.10028-1.17473 2.75014-4.17737.61396-4.8645l-5.07481-1.59714-113.08455,90.60389h-10.5591l-98.77867-74.59493c0,0-2.72492-7.15294-.68123-6.81232s98.09744,72.21061 98.09744,72.21061 4.42801,2.72493 7.83417,3.06555 8.85602-3.06555 10.21848-4.0874 111.38147-89.24142 111.38147-89.24142c2.70155-2.14474 2.81618-3.71653-.34062-5.79047-1.70308-.68123-62.33275-25.88682-89.92265-33.38038z" fill="url(#linearGradient4538)" fill-rule="evenodd" stroke="#333"/>
<path d="m131.81848,453.27106c0,0 .12227,3.15873 3.42079,8.65627 1.6141,2.69017 23.9329,20.00074 46.67208,37.70986 16.66319,12.28482 32.1904,26.11013 49.09485,38.06917 3.37122,2.14139 5.42013,2.29066 8.29206,2.37413 3.92595.1141 7.26602-3.38674 9.73991-5.31088 1.08487-.84379 110.50037-91.53389 110.50037-91.53389l-.27487-10.17043-110.50038,88.23537c0,0-5.12776,3.18377-8.30577,3.34236-2.53109.1263-6.59457-.95933-13.05426-5.89237-1.39883-1.06824-91.80618-68.87429-91.80618-68.87429-1.9344-2.03186-3.99533-1.65952-3.7786,3.3947z" fill="#f5eac5" fill-rule="evenodd"/>
<path d="m358.91429,433.4543-112.47282,89.65174-.88657,14.41242 113.19259-94.54957 .1668-9.51459z" fill="url(#linearGradient4540)" fill-rule="evenodd" filter="url(#filter3338)" opacity=".52899"/>
<path d="m233.68793,526.10792-.45642,11.41054c0,0 4.10779,3.65137 8.21559,1.36927s3.65137-4.1078 3.65137-4.1078v-10.04128c0,0-4.10779,2.28211-5.93348,2.28211s-6.3899-2.28211-5.47706-.91284z" fill-rule="evenodd" filter="url(#filter3306)" opacity=".15942"/>
<path d="m135.94896,450.75301c0,0-1.22635-.87596-1.57673,1.22635s.52558,6.48209 4.55499,11.21228c.8873,1.0416 57.11258,48.17779 57.11258,48.17779l-58.51412-46.77625c0,0-4.33843-4.29709-4.73017-5.08057-1.22635-2.45268-2.10231-7.18287-1.40154-8.58441s.87596-2.27749 2.1023-2.1023 2.62788,1.92711 2.45269,1.92711z" fill-rule="evenodd" filter="url(#filter3368)" opacity=".2971"/>
<path d="m132.11838,448.80901c1.16602-1.39072 3.10666.32581 4.84958,1.33232l94.28869,69.41498c0,0 3.65015,2.92012 8.58933,3.21687 2.08565.12531 4.40115-.21715 6.76871-1.44478 7.97437-4.13486 115.1853-92.14825 115.1853-92.14825s.77936-2.61009-.9091-3.142" fill="none" filter="url(#filter3386)" opacity=".20652" stroke="#fff"/>
<path d="m206.00621,522.89237c1.39305,1.63517 7.77237,8.81338 10.24225,7.54407-.75851-.46875-1.09095-1.63322-1.12762-4.39524 .01998-3.62694-.20269-16.74988-.20269-16.74988s-.46804-3.27623 1.87213-4.68033 59.25892-40.79732 75.76995-51.83531c16.55366-11.06648 53.53716-33.15197 55.40929-33.15197s-9.02251-3.00301-9.02251-3.00301-49.14351,29.95414-65.05665,38.84678-66.46075,41.65498-66.46075,41.65498-3.47568,2.43988-2.81839,6.92078c.48232,6.61073-.74595,16.69175 1.39499,18.84913z" fill-rule="evenodd" filter="url(#filter3446)"/>
<path d="m204.39382,521.68308c1.39305,1.63517 8.17547,8.00719 10.64535,6.73788-.75851-.46875-1.09095-1.63322-1.12762-4.39524 .01998-3.62694-.20269-16.74988-.20269-16.74988s-.46804-3.27623 1.87213-4.68033 53.1689-35.12693 69.7235-46.19196c17.72034-11.84419 60.3898-37.58603 62.26193-37.58603s-9.8287-4.2123-9.8287-4.2123-44.30635,26.72937-65.05665,38.84678c-15.74176,9.19261-66.46075,41.65498-66.46075,41.65498s-3.47568,2.43988-2.81839,6.92078c.48232,6.61073-1.14905,17.49794.99189,19.65532z" fill="url(#linearGradient4542)" fill-rule="evenodd"/>
<g opacity=".38768">
<path d="m337.86103,416.15188c0,0-42.82352,25.79589-63.57382,37.9133-15.74176,9.19261-66.46075,41.65498-66.46075,41.65498s-3.47568,2.43988-2.81839,6.92078c.48232,6.61073-1.14905,17.49794.99189,19.65532" fill="none" filter="url(#filter3620)" stroke="#1a1a1a" stroke-width=".5"/>
<path d="m339.98602,417.1246c0,0-42.80878,26.03899-63.55908,38.1564-15.74176,9.19261-66.46075,41.65498-66.46075,41.65498s-3.47568,2.43988-2.81839,6.92078c.48232,6.61073-1.14905,17.49794.99189,19.65532" fill="none" filter="url(#filter3620)" stroke="#1a1a1a" stroke-width=".5"/>
<path d="m342.14528,417.65482c0,0-40.00832,24.68244-60.75862,36.79985-15.74176,9.19261-68.89181,44.32915-68.89181,44.32915s-3.47568,2.43988-2.81839,6.92078c.48232,6.61073-1.14905,17.49794.99189,19.65532" fill="none" filter="url(#filter3620)" stroke="#1a1a1a" stroke-width=".5"/>
<path d="m343.76915,418.76827c0,0-38.4718,23.8121-59.2221,35.92951-15.74176,9.19261-69.86424,45.54468-69.86424,45.54468s-3.47568,2.43988-2.81839,6.92078c.48232,6.61073-1.14905,17.49794.99189,19.65532" fill="none" filter="url(#filter3620)" stroke="#1a1a1a" stroke-width=".5"/>
</g>
</g>
<path d="m241.00007,430.97234c-1.80488.21907-4.67205,2.46905-8.53125,8.25-.78071,1.16947-6.27428,8.57238-11.21875,15.09375-1.21095.34684-2.0625.78125-2.0625.78125l-5.1875,7.1875c-.26757.59113-.80905,1.23816-.59375,1.71875 0,0 .22932-.05416.375-.09375-.06514.07174-.23801.27093-.28125.3125 1e-005-1e-005-21.7214,33.22638-21.84375,39.1875-.69407,1.74129-1.84375,4.96875-1.84375,4.96875l3.28125-2.875c-1e-005-1e-005 1.33082-.69905 2.84375-1.9375 11.15975-9.66309 19.00402-22.30409 27.4375-34.03125l.46875-.71875c-.00873.07204-.00931.15134-.03125.21875-.68974,2.11966 6.4375-8.53125 6.4375-8.53125s.1252-.56386-.03125-1.40625c1.36908-2.14171 2.78142-4.41145 4.21875-6.78125 .09717-.0384.16727-.07935.25-.125 .96955-.08365 1.125-.75 1.125-.75s6.26949-11.09969 6.9375-12.1875c.13597-.22143.30349-.6731.40625-1.125 .19991-.48103.44632-1.10681.03125-1.53125-.07133-.07294-.21973-.16267-.34375-.25 .57463-1.75398.55996-3.40655 0-4.40625-.0496-.43005-.1532-.70862-.375-.5625-.36852-.32613-.86025-.48011-1.46875-.40625z" fill-rule="evenodd" filter="url(#filter4350)"/>
<g transform="matrix(.62051,-.14206,.13265,.5794,-196.7897,269.91377)">
<g transform="translate(-49.39602,-8.57894)">
<path d="m606.98711,476.84234c0,0-44.92367,46.37282-47.20091,56.10283-1.67329,2.59503-4.55447,7.45278-4.55447,7.45278l6.00363-3.51937c0,0 2.28512-.6547 5.03607-2.11765 20.47682-11.65699 36.9394-29.43174 53.96506-45.4973 .61812-.74174 30.90479-30.51487 40.9723-46.26741 5.32293-8.32874 1.72259-18.3698-16.41765-.01204-2.79519,2.8287-34.90573,31.99497-37.80403,33.85816z" fill="url(#linearGradient4544)" fill-rule="evenodd" filter="url(#filter3893)" stroke="#000" stroke-width=".4"/>
<path d="m563.59297,535.27323 3.93496-1.43089c0,0 12.69917-8.22764 14.48779-9.65853s29.33331-26.47152 29.33331-26.47152l26.29266-26.65038 22.71542-26.29266c0,0 2.86179-5.18699 3.21951-6.26016s-.35772-3.21951-.35772-3.21951-11.26828,15.20324-13.59349,17.52844-38.81297,39.1707-38.81297,39.1707l-48.29264,43.46337 1.07317-.17886z" fill="#fff" fill-rule="evenodd" filter="url(#filter3809)" transform="matrix(.95999,0,0,.95959,24.52937,17.61194)"/>
<path d="m563.05639,534.55778c0,0 18.78047-14.48779 53.47962-46.68288 1.39379-1.29321 27.18697-27.90241 28.08128-29.15444s17.34958-19.31706 17.88616-20.74795 1.25203-4.47154.35772-4.11382-2.3252,3.04065-2.68292,3.75609-32.91054,36.48778-34.52029,37.56095-62.24385,59.38205-62.60157,59.38205z" fill="#3d3727" fill-rule="evenodd" filter="url(#filter3789)"/>
<path d="m658.24345,434.44253c0,0-52.8185,51.39865-55.6582,54.23835s-41.17571,44.29939-41.17571,44.29939l.56794,1.41985c0,0 57.36202-56.79408 61.62158-61.05364s35.21233-36.91616 35.21233-36.91616 1.70383-1.98779-.56794-1.98779z" fill="#fff" fill-rule="evenodd" filter="url(#filter3689)" opacity=".64855"/>
<path d="m606.88943,476.47176c0,0 6.58839-.56102 10.27096,2.63505 1.41948,1.23195 5.22854,7.12782 3.90602,9.49244-1.79934,3.21716 12.85103-11.52166 12.85103-11.52166s2.01832-4.57645-2.55821-10.23287c-4.25485-5.25884-12.50159-2.81897-12.50159-2.81897l-10.44147,9.83908c-.61698.86898-1.68793,1.73795-1.52674,2.60693z" fill="#1a1a1a" fill-rule="evenodd" stroke="#1a1a1a"/>
<path d="m559.70969,533.79642-4.06844,6.13538 4.84936-4.45142-.78092-1.68396z" fill="url(#linearGradient4546)" fill-rule="evenodd"/>
<path d="m562.10096,536.37711-6.38732,3.66023 4.75779-4.54917 1.62953.88894z" fill="url(#linearGradient4548)" fill-rule="evenodd"/>
<path d="m619.13496,464.60996-9.49031,9.16677c0,0-1.07845,1.40198-.9706,1.83336s1.9412.10784 2.58826.21569 4.20594,1.18629 4.20594,1.18629-.21569-.75491-.32354-1.50982-.32353-2.15689 3.34318-5.17654 5.50007-4.63731 5.93145-4.74515 2.04904-.43138 3.01964-.21569 .10785-.9706-.86275-1.18629-5.60792-.53922-7.44127.43138z" fill="url(#linearGradient4550)" fill-rule="evenodd" filter="url(#filter3893)"/>
<path d="m621.61538,483.1592c0,0 1.29413,2.48042.86276,3.8824s11.10797-10.13738 11.10797-10.13738 .43138-3.77455-.21568-4.853 .53545,3.01562-5.60792,8.30403c-3.19871,2.75355-5.8236,2.80395-6.14713,2.80395z" fill="url(#linearGradient4552)" fill-rule="evenodd" filter="url(#filter3999)"/>
</g>
<path d="m606.34207,432.22972c0,0 1.30646-1.1613.58065.87097s-16.113,19.01623-15.96783,20.75818 .14516,2.46775 1.74194,2.75808 2.75808-.72581 2.75808-.72581 15.96783-18.14527 16.40332-18.87108 1.45162-1.8871.87097-2.90324-3.33873-3.33873-3.33873-3.33873-2.32259,0-3.0484,1.45163z" fill-rule="evenodd" filter="url(#filter4090)" opacity=".73188"/>
<path d="m607.79369,432.08456c0,0 2.17883-1.83981 1.45302.19246s-14.56212,18.33772-15.96783,20.27353c-1.02708,1.4144-.72721,3.63091.86957,3.92124s2.0791-.77311 2.0791-.77311 13.48176-15.86933 14.88605-17.40247c.57171-.62417 1.64548-2.56561 1.45255-3.67868-.19987-1.15314-1.72406-3.9846-1.72406-3.9846s-2.32259,0-3.0484,1.45163z" fill="url(#linearGradient4554)" fill-rule="evenodd" stroke="#3a3636" stroke-width=".3"/>
<path d="m609.07426,433.92045-15.87888,19.99037c0,0-.28355.85066.42533,1.55954s.5671-1.41776.5671-1.41776 14.74468-19.99038 16.44599-19.56505 1.24054,2.24478 1.24054,2.24478l-.14178-2.12664c-.85065-.85065-1.38232-2.95366-1.38232-2.95366l-1.27598,1.27599v.99243z" fill="url(#linearGradient4556)" fill-rule="evenodd" filter="url(#filter4156)" opacity=".40728"/>
</g>
</g>
</g>
</svg>
